<svg width="83" height="82" viewBox="0 0 83 82" fill="none" xmlns="http://www.w3.org/2000/svg">
<g id="Icon Background" clip-path="url(#clip0_1741_1927)">
<g id="Icon Group">
<path id="Vector" d="M68.1727 32.6515L52.6689 29.1058L57.2524 9.66442C57.8591 7.09064 60.4696 5.48854 63.0828 6.08626L69.123 7.46748C71.7362 8.06504 73.3628 10.6361 72.756 13.2099L68.1727 32.6515Z" fill="white"/>
<path id="Vector_2" d="M14.7293 32.6516L30.233 29.106L25.6498 9.66442C25.0431 7.09064 22.4326 5.48854 19.8194 6.08626L13.779 7.46764C11.1658 8.0652 9.53916 10.6363 10.146 13.2101L14.7293 32.6516Z" fill="white"/>
<path id="Vector_3" d="M47.7319 4.94838H35.1699L36.4261 -0.000488281H46.4757L47.7319 4.94838Z" fill="white"/>
<path id="Vector_4" d="M36.4267 14.8453H31.4023V4.80261C31.4022 2.14989 33.5855 -0.000488281 36.2789 -0.000488281H36.4267V14.8453Z" fill="white"/>
<path id="Vector_5" d="M51.4999 14.8453H46.4756V-0.000488281H46.6234C49.3168 -0.000488281 51.5001 2.14989 51.5001 4.80261V14.8453H51.4999Z" fill="white"/>
<path id="Vector_6" d="M70.3418 32.0876V61.857H12.5601V32.0876C12.5601 30.2128 12.8253 28.3989 13.3224 26.6818L20.264 23.1459L26.505 13.2956C28.0631 12.806 29.7031 12.5003 31.4014 12.4051H31.403L34.1774 13.4139L36.4261 12.3706H50.3226C61.3783 12.3704 70.3418 21.1989 70.3418 32.0876Z" fill="#FEA301"/>
<path id="Vector_7" d="M40.073 12.3706C36.8466 13.9678 29.0675 18.9281 29.0675 29.6345V61.8572H12.5601V32.0878C12.5601 21.199 21.5236 12.3706 32.5792 12.3706H40.073Z" fill="#FEA301"/>
<path id="Vector_8" d="M72.8542 59.3628V71.7927C72.8542 77.2379 68.3717 81.6512 62.8447 81.6512H20.0574C14.5304 81.6512 10.0479 77.2379 10.0479 71.7927V59.3628C10.0479 57.8692 10.7235 56.5302 11.7895 55.6281C12.6653 54.8838 13.8063 54.4336 15.0526 54.4336H67.8497C70.6122 54.4336 72.8542 56.6403 72.8542 59.3628Z" fill="#FEA301"/>
<path id="Vector_9" d="M29.2061 81.6516H20.0574C14.5293 81.6516 10.0479 77.2378 10.0479 71.7931V59.3632C10.0479 57.8695 10.7235 56.5306 11.7895 55.6284L24.3348 61.8574V74.422C24.3348 77.5537 26.0785 80.3479 29.2061 81.6516Z" fill="#FEA301"/>
<path id="Vector_10" d="M60.411 74.2284C57.2209 74.2284 54.88 71.2755 55.6537 68.2273L57.8987 59.3826H62.923L65.168 68.2273C65.942 71.2755 63.6011 74.2284 60.411 74.2284Z" fill="#495560"/>
<path id="Vector_11" d="M76.6213 59.3923C76.6213 60.0726 76.341 60.6886 75.8889 61.1339C75.4368 61.5808 74.8096 61.8568 74.119 61.8568H24.3347L19.627 61.0698V52.0082L29.0676 49.4861H66.5634C72.1186 49.4861 76.6213 53.9208 76.6213 59.3923Z" fill="white"/>
<path id="Vector_12" d="M22.5363 58.9454C22.5363 60.2451 23.2236 61.1865 24.3347 61.857H8.78322C7.40027 61.857 6.28076 60.7528 6.28076 59.3923C6.28076 56.6566 7.40691 54.1804 9.22688 52.3878C11.047 50.5951 13.561 49.4861 16.3387 49.4861H29.0674C29.0676 49.4862 22.5363 52.12 22.5363 58.9454Z" fill="white"/>
<path id="Vector_13" d="M46.559 27.2169H36.3433C35.002 27.2169 33.9146 26.1459 33.9146 24.8248V22.1861C33.9146 20.865 35.002 19.7939 36.3433 19.7939H46.559C47.9003 19.7939 48.9877 20.865 48.9877 22.1861V24.8248C48.9877 26.1459 47.9003 27.2169 46.559 27.2169Z" fill="#68A2DF"/>
<g id="Icon Detail Group">
<g id="Icon Detail Group_2">
<path id="Vector_14" d="M27.9702 43.7347C30.7174 43.7347 32.9444 41.988 32.9444 39.8333C32.9444 37.6786 30.7174 35.9319 27.9702 35.9319C25.2231 35.9319 22.9961 37.6786 22.9961 39.8333C22.9961 41.988 25.2231 43.7347 27.9702 43.7347Z" fill="white"/>
<path id="Vector_15" d="M54.9317 43.7347C57.6788 43.7347 59.9058 41.988 59.9058 39.8333C59.9058 37.6786 57.6788 35.9319 54.9317 35.9319C52.1845 35.9319 49.9575 37.6786 49.9575 39.8333C49.9575 41.988 52.1845 43.7347 54.9317 43.7347Z" fill="white"/>
<path id="Vector_16" d="M46.2739 35.1365C45.5829 35.1365 45.0228 35.6883 45.0228 36.3687C45.0228 36.9988 44.5022 37.5116 43.8625 37.5116C43.2226 37.5116 42.7022 36.9988 42.7022 36.3687C42.7022 35.6881 42.1419 35.1365 41.451 35.1365C40.7601 35.1365 40.1999 35.6883 40.1999 36.3687C40.1999 36.9988 39.6793 37.5116 39.0396 37.5116C38.3998 37.5116 37.8792 36.9988 37.8792 36.3687C37.8792 35.6881 37.319 35.1365 36.6281 35.1365C35.9372 35.1365 35.377 35.6883 35.377 36.3687C35.377 38.3579 37.0201 39.9761 39.0397 39.9761C39.9628 39.9761 40.8064 39.6374 41.4513 39.0805C42.0961 39.6374 42.9399 39.9761 43.863 39.9761C45.8826 39.9761 47.5257 38.3577 47.5257 36.3687C47.5252 35.6881 46.965 35.1365 46.2739 35.1365Z" fill="#495560"/>
</g>
<g id="Icon Detail Group_3">
<path id="Vector_17" d="M33.484 35.6597C32.7929 35.6597 32.2328 35.108 32.2328 34.4275C32.2328 33.8599 31.7639 33.3981 31.1876 33.3981C30.6114 33.3981 30.1424 33.8599 30.1424 34.4275C30.1424 35.1081 29.5822 35.6597 28.8913 35.6597C28.2004 35.6597 27.6401 35.108 27.6401 34.4275C27.6401 32.5008 29.2316 30.9333 31.1878 30.9333C33.1439 30.9333 34.7354 32.5008 34.7354 34.4275C34.7353 35.108 34.175 35.6597 33.484 35.6597Z" fill="#495560"/>
</g>
<g id="Icon Detail Group_4">
<path id="Vector_18" d="M54.0108 35.6597C53.3197 35.6597 52.7597 35.108 52.7597 34.4275C52.7597 33.8599 52.2907 33.3981 51.7145 33.3981C51.1382 33.3981 50.6693 33.8599 50.6693 34.4275C50.6693 35.1081 50.109 35.6597 49.4181 35.6597C48.7271 35.6597 48.167 35.108 48.167 34.4275C48.167 32.5008 49.7585 30.9333 51.7146 30.9333C53.6708 30.9333 55.2623 32.5008 55.2623 34.4275C55.262 35.108 54.7019 35.6597 54.0108 35.6597Z" fill="#495560"/>
</g>
</g>
</g>
</g>
<defs>
<clipPath id="clip0_1741_1927">
<rect width="82.9025" height="81.6518" fill="white"/>
</clipPath>
</defs>
</svg>
